<svg width="34" height="34" viewBox="0 0 34 34" fill="none" xmlns="http://www.w3.org/2000/svg">
<path d="M17 12.574C14.5629 12.574 12.574 14.5629 12.574 17C12.574 19.4371 14.5629 21.426 17 21.426C19.4371 21.426 21.426 19.4371 21.426 17C21.426 14.5629 19.4371 12.574 17 12.574ZM30.2746 17C30.2746 15.1672 30.2912 13.351 30.1883 11.5215C30.0854 9.39648 29.6006 7.51055 28.0467 5.95664C26.4895 4.39941 24.6069 3.91797 22.4819 3.81504C20.649 3.71211 18.8328 3.72871 17.0033 3.72871C15.1705 3.72871 13.3543 3.71211 11.5248 3.81504C9.39981 3.91797 7.51387 4.40273 5.95997 5.95664C4.40274 7.51387 3.92129 9.39648 3.81836 11.5215C3.71543 13.3543 3.73204 15.1705 3.73204 17C3.73204 18.8295 3.71543 20.649 3.81836 22.4785C3.92129 24.6035 4.40606 26.4895 5.95997 28.0434C7.5172 29.6006 9.39981 30.082 11.5248 30.185C13.3576 30.2879 15.1738 30.2713 17.0033 30.2713C18.8361 30.2713 20.6524 30.2879 22.4819 30.185C24.6069 30.082 26.4928 29.5973 28.0467 28.0434C29.6039 26.4861 30.0854 24.6035 30.1883 22.4785C30.2946 20.649 30.2746 18.8328 30.2746 17V17ZM17 23.81C13.2315 23.81 10.19 20.7686 10.19 17C10.19 13.2314 13.2315 10.19 17 10.19C20.7686 10.19 23.81 13.2314 23.81 17C23.81 20.7686 20.7686 23.81 17 23.81ZM24.0889 11.5016C23.209 11.5016 22.4985 10.791 22.4985 9.91113C22.4985 9.03125 23.209 8.3207 24.0889 8.3207C24.9688 8.3207 25.6793 9.03125 25.6793 9.91113C25.6796 10.1201 25.6386 10.327 25.5588 10.5201C25.479 10.7132 25.3618 10.8886 25.2141 11.0363C25.0663 11.1841 24.8909 11.3012 24.6978 11.381C24.5048 11.4609 24.2978 11.5018 24.0889 11.5016V11.5016Z" fill="white"/>
</svg>
