<svg width="190" height="38" viewBox="0 0 190 38" fill="none" xmlns="http://www.w3.org/2000/svg">
<path d="M22.9805 5.85547H10.9883L6.96484 29H0.285156L5.20703 0.5625H23.8984L22.9805 5.85547ZM39.1523 7.86719L35.4805 29H29.0547L31.8477 12.9453H28.0781L26.4375 20.5234C25.7344 23.401 24.7057 25.5234 23.3516 26.8906C22.0104 28.2448 20.3438 28.9479 18.3516 29H15.6172L16.2812 23.9805L16.8672 23.9414C18.612 23.7721 19.8424 22.2552 20.5586 19.3906L22.9219 7.86719H39.1523ZM51.0469 29C50.8646 28.4922 50.7734 27.8542 50.7734 27.0859C49.3281 28.6745 47.6029 29.4427 45.5977 29.3906C43.7617 29.3646 42.2383 28.7526 41.0273 27.5547C39.8164 26.3568 39.25 24.9049 39.3281 23.1992C39.3932 20.9076 40.3503 19.1497 42.1992 17.9258C44.0482 16.6888 46.5742 16.0703 49.7773 16.0703L51.9258 16.1094L52.1602 14.918L52.2383 13.8828C52.1862 12.6979 51.5938 12.0859 50.4609 12.0469C49.0547 12.0208 48.1888 12.7956 47.8633 14.3711L41.418 14.3906C41.4831 12.9714 41.9453 11.7409 42.8047 10.6992C43.6641 9.64453 44.8294 8.83724 46.3008 8.27734C47.7852 7.70443 49.3607 7.4375 51.0273 7.47656C52.6289 7.51562 54.0286 7.85417 55.2266 8.49219C56.4375 9.11719 57.3424 9.99609 57.9414 11.1289C58.5404 12.2487 58.7682 13.5443 58.625 15.0156L57.043 24.957L56.9453 26.168C56.8932 27.1315 57.0169 27.9518 57.3164 28.6289L57.2969 29H51.0469ZM47.375 24.7422C48.6901 24.7943 49.8424 24.2148 50.832 23.0039L51.4766 19.6055L49.8164 19.5859C48.7878 19.612 47.9023 19.918 47.1602 20.5039C46.418 21.0768 45.9818 21.8646 45.8516 22.8672C45.7865 23.401 45.8841 23.8438 46.1445 24.1953C46.418 24.5339 46.8281 24.7161 47.375 24.7422ZM60.3438 29L63.9961 7.86719L72.0234 7.88672C74.849 7.89974 76.9844 8.40104 78.4297 9.39062C79.888 10.3672 80.5846 11.7799 80.5195 13.6289C80.4805 14.6315 80.1094 15.5169 79.4062 16.2852C78.7031 17.0534 77.5247 17.7305 75.8711 18.3164C77.1992 18.6159 78.2409 19.1628 78.9961 19.957C79.7513 20.7383 80.1159 21.6888 80.0898 22.8086C80.0638 24.8008 79.2565 26.3307 77.668 27.3984C76.0794 28.4661 73.8073 29 70.8516 29H60.3438ZM68.2734 20.3867L67.6484 23.9609H71.0469C72.6745 23.8958 73.6185 23.2773 73.8789 22.1055C73.957 21.793 73.9701 21.5326 73.918 21.3242C73.7747 20.7513 73.2409 20.4453 72.3164 20.4062L68.2734 20.3867ZM68.9766 16.3242L71.3203 16.3438C72.8698 16.2786 73.7487 15.7122 73.957 14.6445C74.0221 14.306 74.0286 14.026 73.9766 13.8047C73.8073 13.2578 73.2409 12.9648 72.2773 12.9258L69.5625 12.9062L68.9766 16.3242ZM92.082 21.6172H90.0508L88.7617 29H82.3359L85.9883 7.86719H92.4336L91.1055 15.4648H92.7656L97.3555 7.86719L105.91 7.88672L97.8438 17.6328L97.9609 17.6133L102.57 29H94.1133L92.082 21.6172ZM116.281 29C116.099 28.4922 116.008 27.8542 116.008 27.0859C114.562 28.6745 112.837 29.4427 110.832 29.3906C108.996 29.3646 107.473 28.7526 106.262 27.5547C105.051 26.3568 104.484 24.9049 104.562 23.1992C104.628 20.9076 105.585 19.1497 107.434 17.9258C109.283 16.6888 111.809 16.0703 115.012 16.0703L117.16 16.1094L117.395 14.918L117.473 13.8828C117.421 12.6979 116.828 12.0859 115.695 12.0469C114.289 12.0208 113.423 12.7956 113.098 14.3711L106.652 14.3906C106.717 12.9714 107.18 11.7409 108.039 10.6992C108.898 9.64453 110.064 8.83724 111.535 8.27734C113.02 7.70443 114.595 7.4375 116.262 7.47656C117.863 7.51562 119.263 7.85417 120.461 8.49219C121.672 9.11719 122.577 9.99609 123.176 11.1289C123.775 12.2487 124.003 13.5443 123.859 15.0156L122.277 24.957L122.18 26.168C122.128 27.1315 122.251 27.9518 122.551 28.6289L122.531 29H116.281ZM112.609 24.7422C113.924 24.7943 115.077 24.2148 116.066 23.0039L116.711 19.6055L115.051 19.5859C114.022 19.612 113.137 19.918 112.395 20.5039C111.652 21.0768 111.216 21.8646 111.086 22.8672C111.021 23.401 111.118 23.8438 111.379 24.1953C111.652 24.5339 112.062 24.7161 112.609 24.7422ZM143.508 29H137.043L139.836 12.9453H134.23L131.438 29H125.012L128.684 7.86719H147.18L143.508 29ZM157.609 29.3906C155.721 29.3776 154.035 28.9349 152.551 28.0625C151.079 27.1771 149.966 25.9531 149.211 24.3906C148.456 22.8151 148.156 21.0833 148.312 19.1953L148.371 18.6484C148.723 15.1719 149.927 12.4245 151.984 10.4062C154.055 8.375 156.587 7.39844 159.582 7.47656C161.392 7.5026 162.941 7.96484 164.23 8.86328C165.52 9.7487 166.464 10.9792 167.062 12.5547C167.661 14.1172 167.857 15.875 167.648 17.8281L167.277 20.5039H154.699C154.725 21.6107 155.038 22.5091 155.637 23.1992C156.236 23.8893 157.108 24.2539 158.254 24.293C160.116 24.3451 161.789 23.6289 163.273 22.1445L165.969 25.7188C165.174 26.8516 164.061 27.7435 162.629 28.3945C161.21 29.0326 159.654 29.3646 157.961 29.3906H157.609ZM159.172 12.5352C158.26 12.5091 157.466 12.7956 156.789 13.3945C156.125 13.9935 155.546 14.9961 155.051 16.4023H161.477L161.594 15.8359C161.672 15.3802 161.685 14.9505 161.633 14.5469C161.411 13.2448 160.591 12.5742 159.172 12.5352ZM189.309 18.4531C189.035 20.6667 188.456 22.6393 187.57 24.3711C186.685 26.0898 185.585 27.3724 184.27 28.2188C182.967 29.0521 181.509 29.4492 179.895 29.4102C178.046 29.3581 176.548 28.6289 175.402 27.2227L173.488 37.125H167.062L172.141 7.86719L178.078 7.84766L177.746 9.85938C179.165 8.21875 180.839 7.42448 182.766 7.47656C184.823 7.5026 186.424 8.23828 187.57 9.68359C188.729 11.1289 189.348 13.1016 189.426 15.6016C189.452 16.4089 189.413 17.3594 189.309 18.4531ZM183.059 15.8359C182.993 13.6875 182.264 12.5938 180.871 12.5547C179.517 12.4766 178.391 13.0299 177.492 14.2148L175.988 22.5938C176.392 23.7266 177.29 24.306 178.684 24.332C180.962 24.3711 182.362 22.4115 182.883 18.4531C183 17.2031 183.059 16.3307 183.059 15.8359Z" fill="#E20338"/>
</svg>
