<svg width="27" height="27" viewBox="0 0 27 27" fill="none" xmlns="http://www.w3.org/2000/svg">
<path d="M13.5 0.421875C6.27497 0.421875 0.421875 6.27581 0.421875 13.5C0.421875 20.7242 6.27581 26.5781 13.5 26.5781C20.725 26.5781 26.5781 20.7242 26.5781 13.5C26.5781 6.27581 20.7242 0.421875 13.5 0.421875ZM19.9235 9.38166L17.777 19.4965C17.6183 20.2137 17.1914 20.3875 16.5957 20.05L13.3262 17.6403L11.7492 19.159C11.5754 19.3328 11.4278 19.4805 11.0903 19.4805L11.3223 16.1527L17.3813 10.6785C17.6453 10.4465 17.323 10.3148 16.9746 10.5469L9.48628 15.2609L6.25894 14.2535C5.55778 14.0324 5.54175 13.5523 6.40659 13.2148L19.0156 8.35228C19.6012 8.14134 20.1125 8.49488 19.9226 9.38081L19.9235 9.38166Z" fill="white"/>
</svg>
