<svg width="38" height="38" viewBox="0 0 38 38" fill="none" xmlns="http://www.w3.org/2000/svg">
<path d="M34.9311 10.9881C34.7418 10.2832 34.3707 9.64029 33.8549 9.12384C33.3391 8.6074 32.6967 8.23548 31.992 8.04531C29.398 7.34766 19 7.34766 19 7.34766C19 7.34766 8.60195 7.34766 6.00801 8.0416C5.30301 8.23115 4.66029 8.60286 4.1444 9.11941C3.62851 9.63595 3.25761 10.2791 3.06895 10.9844C2.375 13.582 2.375 19 2.375 19C2.375 19 2.375 24.418 3.06895 27.0119C3.45117 28.4443 4.5793 29.5725 6.00801 29.9547C8.60195 30.6523 19 30.6523 19 30.6523C19 30.6523 29.398 30.6523 31.992 29.9547C33.4244 29.5725 34.5488 28.4443 34.9311 27.0119C35.625 24.418 35.625 19 35.625 19C35.625 19 35.625 13.582 34.9311 10.9881ZM15.6973 23.9727V14.0273L24.3066 18.9629L15.6973 23.9727Z" fill="white"/>
</svg>
